<?xml version="1.0" encoding="UTF-8"?>
<svg id="Layer_2" data-name="Layer 2" xmlns="http://www.w3.org/2000/svg" viewBox="0 0 337.82 406.94">
  <g id="Layer_1-2" data-name="Layer 1">
    <g>
      <path d="M158.83,132.72l-20.07,20.09c-1.19-15.12,3.1-29.39,11.74-41.18-19.3,2.83-39,14.95-52.63,27.95l-24.9,23.77-9.7,7.83c.24-10.93,2.65-20.26,5.33-30.54-11.16,7.72-20.91,16.15-30.32,25.47-7.01,6.94-11.36,15.41-13.8,24.89l-2.31,8.97c-4.52-7.81-7.14-15.57-8.81-24.1-3.44-17.6,3.53-36.12,20.28-43.71-3.07-8.42-16.36-5-23.6-.51l-10.04,6.22c5.63-22.74,22.2-41.16,44.85-47.31-12.47-9.43-21.3-22.26-22.33-38.18,19.44,10.81,38.47,15.02,59.81,10.19l-10.56-8.78c-4.05-3.36-9.78-11.2-8.55-14.12.19-.45,1.69-.94,2.25-.84l8.51,1.53c-3.44-13.3-1.34-27.52,4.66-40.38,6.18,19.97,21.97,33.46,41.87,37.03,4.37.78,8.46,1.09,12.87.56l17.59-2.31c9.68-1.27,19.02-1.08,28.88.74-6.43-10.13-12.16-20.94-11-33.53,13.2,16.49,28.96,27.91,47.45,36.09l16.08,7.11c14.42,6.37,26.11,16.58,35.66,29.82,1.76-5.68.93-11.88-.99-17.81-1.91-5.94-5.39-10.94-7.85-17.32,21.85,10.39,37.32,35.76,33.93,59.36,10.57-.17,20.05,3.09,27.94,9.62,7.49,6.2,13.72,13.85,16.73,23.78-10.45-3.64-19.93-8.06-29.18-.53,3.72,3.72,7.41,6.82,9.94,11.1,9.04,15.25,1.6,39.93-6.26,56.33l-5.64-19.52c-6.05-16.58-15.65-31.23-28.91-42.75-14.41-12.53-32.33-17.78-51.2-14.94-10.54,1.59-19.92,4.97-30.6,8.98,6.14-12.53,16.99-21.06,29.5-25.08-22.83-5.33-49.69,10.86-66.65,26.01Z"/>
      <path d="M184.21,236.49c-8.61-7.69-21.55-7.37-30.64-.42,3.17,27-12.02,52.47-37.18,62.51-22.43,8.94-47.46,3.87-64.7-13.01-10.12-9.91-16.56-22.84-17.29-37.09-.11-2.09-.92-4.04-3.35-4.05l-16.29-.03c-1.31,0-2.75-1.66-2.74-2.89l.09-9.06c.01-1.43,1.78-2.98,3.23-2.98l17.55.03c2.49,0,3.19-1.67,3.85-3.72,8.33-26.17,33.85-43.59,61.38-41.57,22.71,1.67,42.47,15.53,51.94,36.8,12.07-5.53,25.46-6.14,37.98.25,13.36-32.01,50.18-46.15,81.42-31.45,15.66,7.37,27.21,20.49,32.45,37.33l20.88.11c1.57,0,3.55,1.21,3.56,2.83l.07,9.46c0,1.29-1.71,2.81-2.98,2.81l-16.39.08c-2.31.01-3.3,2.16-3.38,4.05-1.03,23.2-16.04,43.14-36.22,51.61-22.9,9.61-48.04,4.5-65.43-12.15-13.38-12.81-20.17-30.46-17.82-49.45ZM140.99,243.67c0-25.88-20.99-46.86-46.88-46.86s-46.88,20.98-46.88,46.86,20.99,46.86,46.88,46.86,46.88-20.98,46.88-46.86ZM290.5,243.6c0-25.84-20.96-46.79-46.81-46.79s-46.81,20.95-46.81,46.79,20.96,46.79,46.81,46.79,46.81-20.95,46.81-46.79Z"/>
      <path d="M230.38,348.86c-19.66,3.96-48.91-.87-61.03-18.37-4.46,6.57-10.7,11.04-18.22,14.15-19.24,7.95-44.8,8.45-62.22-3.86-8.65-6.12-15.74-14.56-18.29-25.41l11.49,7.17c13.32,8.31,29.76,1.31,42.05-7.46,15.07-10.76,31.74-12.43,45.23.54,12.61-13.08,30.14-11.12,44.4-.98,12.6,9.35,25.81,15.59,40.66,8.27l12.74-7.52c-4.34,17.66-19.46,29.99-36.81,33.48Z"/>
      <path d="M176.14,399.78l-6.73,7.16c-7.13-7.35-13.16-15.44-16.57-25.5-1.37,1.63-2.74,3.19-4.34,4.13-6.7-4.64-13.09-18.01-7.88-19.11l20.67-4.36c6.82-1.44,13.56-.58,20.31.96l19.05,4.37c-1.13,8.07-5.46,15.13-12.24,19.8-1.23-1.07-2.09-2.55-2.94-4.22-1.98,6.03-4.69,11.85-9.32,16.76Z"/>
    </g>
  </g>
</svg>