<?xml version="1.0" encoding="UTF-8"?>
<svg xmlns="http://www.w3.org/2000/svg" viewBox="0 0 40 40">
  <defs>
    <style>
      .cls-2 { fill: #fff; }
      .cls-3 { fill: #1d1d1d; }
    </style>
  </defs>
  <rect class="cls-3" x="0" y="0" width="40" height="40" rx="5.5" ry="5.5"/>
  <g transform="translate(-13.19,-14.45) scale(1.7)">
    <path class="cls-2" d="M10.88,19.97c-.64-1.75-.64-3.19.77-3.97-.57-.24-1.21-.09-1.88.27.45-1.21,1.24-2.13,2.59-2.56-.83-.77-1.21-1.5-1.3-2.22,1.05.68,2.15.92,3.32.67-.42-.3-.77-.75-1.08-1.35.3.06.54.07.71,0-.29-.94-.1-1.72.37-2.42.64,2.43,3.46,2.29,6.09,2.22-.44-.47-.66-1.09-.67-1.85,2.44,2.8,4.45,1.7,5.72,4.38.08-.84-.11-1.68-.5-2.52,1.03,1.01,1.8,2.12,1.72,3.57,1.01.15,1.88.72,2.56,1.78-.65-.16-1.26-.13-1.85.07,1.18,1.14.99,2.42.47,3.74-.95-3.37-3-4.89-6.5-4.01.4-.54.93-1.01,1.72-1.38-1.99-.08-3.71,1.01-5.28,2.73.04-.82.17-1.63.54-2.42-1.45.26-3.15,1.76-4.88,3.43-.08-.61-.09-1.23-.03-1.85-1.3.97-2.12,2.23-2.59,3.7Z"/>
    <path class="cls-2" d="M28.21,21.82h-1.13c-.34-1.53-1.7-2.68-3.33-2.68-1.42,0-2.64.87-3.15,2.11-.77-.26-1.54-.26-2.3,0-.51-1.24-1.73-2.11-3.15-2.11-1.63,0-2.99,1.15-3.33,2.68h-1.11c-.18,0-.33.15-.33.33s.15.33.33.33h1.03s0,.05,0,.08c0,1.88,1.53,3.42,3.42,3.42s3.42-1.53,3.42-3.42c0-.23-.02-.46-.07-.67.64-.22,1.27-.22,1.92,0-.04.22-.07.44-.07.67,0,1.88,1.53,3.42,3.42,3.42s3.42-1.53,3.42-3.42c0-.03,0-.05,0-.08h1.05c.18,0,.33-.15.33-.33s-.15-.33-.33-.33ZM15.13,25.31c-1.52,0-2.75-1.24-2.75-2.75s1.24-2.75,2.75-2.75,2.75,1.24,2.75,2.75-1.24,2.75-2.75,2.75ZM23.74,25.31c-1.52,0-2.75-1.24-2.75-2.75s1.24-2.75,2.75-2.75,2.75,1.24,2.75,2.75-1.24,2.75-2.75,2.75Z"/>
    <path class="cls-2" d="M22.26,26.75c-.82-.69-1.98-.83-2.55-.18-.08.09-.14.2-.19.32-.02.04-.08.04-.09,0-.05-.12-.11-.23-.19-.32-.57-.65-1.73-.51-2.55.18-.82.69-2.15.77-2.82.02,0,0,.39,2.22,3.11,2.22,1.54,0,2.25-.57,2.46-1.19.01-.04.06-.04.07,0,.21.61.92,1.19,2.46,1.19,2.71,0,3.11-2.22,3.11-2.22-.67.75-2.01.67-2.82-.02Z"/>
    <path class="cls-2" d="M19.48,29.46s-1.07-.04-1.86.43c0,0,.13.78.65,1.11,0,0,0-.32.23-.47,0,0,.07.98.98,1.61.91-.63.98-1.61.98-1.61.24.15.23.47.23.47.52-.33.65-1.11.65-1.11-.79-.46-1.86-.43-1.86-.43Z"/>
  </g>
</svg>
