<?xml version="1.0" encoding="UTF-8"?>
<svg id="Layer_2" data-name="Layer 2" xmlns="http://www.w3.org/2000/svg" viewBox="0 0 196.57 43.94">
  <g id="Layer_1-2" data-name="Layer 1">
    <path d="M159.76,42.45c-19.66,3.96-48.91-.87-61.03-18.37-4.46,6.57-10.7,11.04-18.22,14.15-19.24,7.95-44.8,8.45-62.22-3.86C9.64,28.25,2.55,19.81,0,8.96l11.49,7.17c13.32,8.31,29.76,1.31,42.05-7.46,15.07-10.76,31.74-12.43,45.23.54,12.61-13.08,30.14-11.12,44.4-.98,12.6,9.35,25.81,15.59,40.66,8.27l12.74-7.52c-4.34,17.66-19.46,29.99-36.81,33.48Z"/>
  </g>
</svg>